<svg xmlns="http://www.w3.org/2000/svg" width="512" height="512" viewBox="0 0 512 512" version="1.1"><path d="M 132 212.445 L 132 336 158 336 L 184 336 184 238.500 L 184 141 261.083 141 C 303.479 141, 338.017 141.338, 337.833 141.750 C 337.650 142.163, 333.799 149.764, 329.274 158.641 C 321.123 174.636, 317.500 179.404, 312.673 180.489 C 311.478 180.758, 295.875 181.096, 278 181.239 C 242.166 181.527, 242.723 181.435, 236.164 188.144 C 230.660 193.773, 229.993 198.118, 230.056 227.932 C 230.111 254.276, 230.127 254.464, 231.869 250.171 C 234.257 244.288, 238.605 239.055, 242.375 237.528 C 244.610 236.622, 256.494 236.094, 284.124 235.671 C 305.367 235.347, 322.978 235.311, 323.260 235.593 C 324.210 236.544, 307.772 267.468, 304.536 270.818 C 302.668 272.752, 299.697 274.515, 297.415 275.044 C 295.262 275.544, 282.475 275.973, 269 275.998 C 241.867 276.049, 238.437 276.705, 234.304 282.633 C 230.477 288.123, 230 291.627, 230 314.228 L 230 336.158 270.250 335.743 C 303.014 335.404, 312.174 335.005, 319.500 333.595 C 360.649 325.675, 379.530 305.464, 379.376 269.500 C 379.333 259.252, 378.950 256.439, 376.758 250.236 C 371.321 234.852, 360.834 223.694, 343.810 215.180 C 338.139 212.344, 334.242 210.019, 335.148 210.012 C 336.055 210.005, 340.889 207.952, 345.890 205.448 C 372.483 192.135, 384.808 165.697, 377.799 137 C 376.130 130.169, 370.391 119.383, 365.697 114.257 C 356.033 103.703, 339.380 95.764, 318.556 91.784 C 307.938 89.755, 304.024 89.656, 219.750 89.281 L 132 88.890 132 212.445 M 110 448 L 110 469 117 469 L 124 469 124 460.462 L 124 451.925 133.250 452.212 L 142.500 452.500 142.658 460.500 L 142.817 468.500 149.408 468.796 L 156 469.091 156 448 L 156 426.909 149.408 427.204 L 142.817 427.500 142.658 435.500 L 142.500 443.500 135.804 443.794 C 129.281 444.081, 129.049 444.184, 126.804 447.794 L 124.500 451.500 124.219 439.250 L 123.938 427 116.969 427 L 110 427 110 448 M 161 448 L 161 469 180.500 469 L 200 469 200 464.500 L 200 460 188.557 460 C 177.865 460, 177.011 459.854, 175.557 457.777 C 172.334 453.176, 173.337 452.115, 181.215 451.794 C 188.173 451.510, 188.510 451.379, 190.715 448.102 C 191.972 446.233, 193 444.321, 193 443.852 C 193 443.383, 188.725 443, 183.500 443 C 174.933 443, 174 442.819, 174 441.155 C 174 437.036, 176.979 436, 188.829 436 L 200 436 200 431.500 L 200 427 180.500 427 L 161 427 161 448 M 217.569 447.485 C 210.656 458.752, 205 468.202, 205 468.485 C 205 468.768, 208.489 469, 212.753 469 L 220.506 469 229.388 453.500 C 234.273 444.975, 238.546 438.004, 238.885 438.009 C 239.625 438.020, 247 450.830, 247 452.105 C 247 452.597, 244.323 453, 241.051 453 C 235.480 453, 234.940 453.213, 232.551 456.344 C 231.148 458.184, 230 459.984, 230 460.344 C 230 460.705, 235.166 461, 241.480 461 L 252.959 461 255 465 L 257.041 469 265.104 469 C 269.538 469, 273.017 468.641, 272.833 468.201 C 272.650 467.762, 266.928 458.312, 260.119 447.201 L 247.737 427 238.938 427 L 230.139 427 217.569 447.485 M 274 443.032 C 274 468.285, 274.674 469, 298.462 469 L 312.987 469 316.068 464.750 L 319.148 460.500 304.892 460.221 C 296.461 460.057, 290.098 459.496, 289.318 458.849 C 288.332 458.031, 288 453.883, 288 442.378 L 288 427 281 427 L 274 427 274 443.032 M 309.193 431.250 L 309.500 435.500 316.750 435.794 L 324 436.088 324 452.544 L 324 469 330.500 469 L 337 469 337 452.500 L 337 436 344 436 L 351 436 351 431.500 L 351 427 329.943 427 L 308.885 427 309.193 431.250 M 356 448.046 L 356 469.091 362.625 468.796 L 369.250 468.500 369.375 460.500 L 369.500 452.500 378.750 452.212 L 388 451.925 388 460.462 L 388 469 395 469 L 402 469 402 448 L 402 427 395.040 427 L 388.081 427 387.790 435.250 L 387.500 443.500 381.014 444 C 375.030 444.461, 374.372 444.748, 372.514 447.711 C 370.454 450.996, 368.784 451.986, 369.075 449.750 C 369.164 449.063, 369.184 443.663, 369.118 437.750 L 369 427 362.500 427 L 356 427 356 448.046" stroke="none" fill="#f9fafb" fill-rule="evenodd"/><path d="M 70 1.497 C 42.361 7.062, 17.469 28.106, 6.034 55.574 C -0.353 70.915, -0.059 60.587, 0.237 259.500 C 0.540 462.544, -0.207 443.228, 8.018 460.779 C 17.528 481.074, 34.487 497.188, 55.574 505.966 C 70.915 512.353, 60.587 512.059, 259.500 511.763 C 429.634 511.509, 440.855 511.386, 446.420 509.715 C 461.555 505.169, 477.505 495.504, 487.753 484.667 C 498.205 473.616, 507.853 455.733, 510.109 443.229 C 510.678 440.078, 511.561 436.719, 512.072 435.764 C 513.390 433.297, 513.319 74.685, 512 75.500 C 511.442 75.845, 511 75.080, 511 73.769 C 511 65.717, 502.988 46.776, 495.057 36.077 C 482.131 18.641, 461.402 5.277, 441.327 1.435 C 430.692 -0.599, 80.122 -0.541, 70 1.497 M 0.489 256 C 0.489 355.275, 0.607 395.888, 0.750 346.250 C 0.893 296.612, 0.893 215.388, 0.750 165.750 C 0.607 116.112, 0.489 156.725, 0.489 256 M 132 212.445 L 132 336 158 336 L 184 336 184 238.500 L 184 141 261.083 141 C 303.479 141, 338.017 141.338, 337.833 141.750 C 337.650 142.163, 333.799 149.764, 329.274 158.641 C 321.123 174.636, 317.500 179.404, 312.673 180.489 C 311.478 180.758, 295.875 181.096, 278 181.239 C 242.166 181.527, 242.723 181.435, 236.164 188.144 C 230.660 193.773, 229.993 198.118, 230.056 227.932 C 230.111 254.276, 230.127 254.464, 231.869 250.171 C 234.257 244.288, 238.605 239.055, 242.375 237.528 C 244.610 236.622, 256.494 236.094, 284.124 235.671 C 305.367 235.347, 322.978 235.311, 323.260 235.593 C 324.210 236.544, 307.772 267.468, 304.536 270.818 C 302.668 272.752, 299.697 274.515, 297.415 275.044 C 295.262 275.544, 282.475 275.973, 269 275.998 C 241.867 276.049, 238.437 276.705, 234.304 282.633 C 230.477 288.123, 230 291.627, 230 314.228 L 230 336.158 270.250 335.743 C 303.014 335.404, 312.174 335.005, 319.500 333.595 C 360.649 325.675, 379.530 305.464, 379.376 269.500 C 379.333 259.252, 378.950 256.439, 376.758 250.236 C 371.321 234.852, 360.834 223.694, 343.810 215.180 C 338.139 212.344, 334.242 210.019, 335.148 210.012 C 336.055 210.005, 340.889 207.952, 345.890 205.448 C 372.483 192.135, 384.808 165.697, 377.799 137 C 376.130 130.169, 370.391 119.383, 365.697 114.257 C 356.033 103.703, 339.380 95.764, 318.556 91.784 C 307.938 89.755, 304.024 89.656, 219.750 89.281 L 132 88.890 132 212.445 M 110 448 L 110 469 117 469 L 124 469 124 460.462 L 124 451.925 133.250 452.212 L 142.500 452.500 142.658 460.500 L 142.817 468.500 149.408 468.796 L 156 469.091 156 448 L 156 426.909 149.408 427.204 L 142.817 427.500 142.658 435.500 L 142.500 443.500 135.804 443.794 C 129.281 444.081, 129.049 444.184, 126.804 447.794 L 124.500 451.500 124.219 439.250 L 123.938 427 116.969 427 L 110 427 110 448 M 161 448 L 161 469 180.500 469 L 200 469 200 464.500 L 200 460 188.557 460 C 177.865 460, 177.011 459.854, 175.557 457.777 C 172.334 453.176, 173.337 452.115, 181.215 451.794 C 188.173 451.510, 188.510 451.379, 190.715 448.102 C 191.972 446.233, 193 444.321, 193 443.852 C 193 443.383, 188.725 443, 183.500 443 C 174.933 443, 174 442.819, 174 441.155 C 174 437.036, 176.979 436, 188.829 436 L 200 436 200 431.500 L 200 427 180.500 427 L 161 427 161 448 M 217.569 447.485 C 210.656 458.752, 205 468.202, 205 468.485 C 205 468.768, 208.489 469, 212.753 469 L 220.506 469 229.388 453.500 C 234.273 444.975, 238.546 438.004, 238.885 438.009 C 239.625 438.020, 247 450.830, 247 452.105 C 247 452.597, 244.323 453, 241.051 453 C 235.480 453, 234.940 453.213, 232.551 456.344 C 231.148 458.184, 230 459.984, 230 460.344 C 230 460.705, 235.166 461, 241.480 461 L 252.959 461 255 465 L 257.041 469 265.104 469 C 269.538 469, 273.017 468.641, 272.833 468.201 C 272.650 467.762, 266.928 458.312, 260.119 447.201 L 247.737 427 238.938 427 L 230.139 427 217.569 447.485 M 274 443.032 C 274 468.285, 274.674 469, 298.462 469 L 312.987 469 316.068 464.750 L 319.148 460.500 304.892 460.221 C 296.461 460.057, 290.098 459.496, 289.318 458.849 C 288.332 458.031, 288 453.883, 288 442.378 L 288 427 281 427 L 274 427 274 443.032 M 309.193 431.250 L 309.500 435.500 316.750 435.794 L 324 436.088 324 452.544 L 324 469 330.500 469 L 337 469 337 452.500 L 337 436 344 436 L 351 436 351 431.500 L 351 427 329.943 427 L 308.885 427 309.193 431.250 M 356 448.046 L 356 469.091 362.625 468.796 L 369.250 468.500 369.375 460.500 L 369.500 452.500 378.750 452.212 L 388 451.925 388 460.462 L 388 469 395 469 L 402 469 402 448 L 402 427 395.040 427 L 388.081 427 387.790 435.250 L 387.500 443.500 381.014 444 C 375.030 444.461, 374.372 444.748, 372.514 447.711 C 370.454 450.996, 368.784 451.986, 369.075 449.750 C 369.164 449.063, 369.184 443.663, 369.118 437.750 L 369 427 362.500 427 L 356 427 356 448.046" stroke="none" fill="#045cac" fill-rule="evenodd"/></svg>